<svg xmlns="http://www.w3.org/2000/svg" data-name="Layer 1" viewBox="0 0 100 125" x="0px" y="0px"><title>cart</title><path d="M40.15088,79.43921a7.7804,7.7804,0,1,0,7.78027,7.78039A7.78042,7.78042,0,0,0,40.15088,79.43921Z"/><path d="M71.31567,79.43921a7.7804,7.7804,0,1,0,7.78052,7.78039A7.78047,7.78047,0,0,0,71.31567,79.43921Z"/><path d="M93.26,24.3H31.6499L29.05005,7.38A2.79533,2.79533,0,0,0,26.29,5H8.12988a2.795,2.795,0,1,0,0,5.59h15.75L25.99,24.3l3.45,22.40021h0L32.11987,64.1h0l1.44019,9.38a2.79769,2.79769,0,0,0,2.77,2.38H75.10986a2.79,2.79,0,1,0,0-5.58H38.73l-.95-6.18H80.18994A1.41379,1.41379,0,0,0,81.52,63.16L87.3374,46.7002H35.1001l-.77014-5H89.10474L94.59009,26.18A1.41292,1.41292,0,0,0,93.26,24.3Z"/><text x="0" y="115" fill="#000000" font-size="5px" font-weight="bold" font-family="'Helvetica Neue', Helvetica, Arial-Unicode, Arial, Sans-serif">Created by Lyhn</text><text x="0" y="120" fill="#000000" font-size="5px" font-weight="bold" font-family="'Helvetica Neue', Helvetica, Arial-Unicode, Arial, Sans-serif">from the Noun Project</text></svg>